<svg width="512" height="512" viewBox="0 0 512 512" fill="none" xmlns="http://www.w3.org/2000/svg">
  <path fill-rule="evenodd" clip-rule="evenodd" d="M0 64A64 64 0 0 1 64 0h384a64 64 0 0 1 64 64v384a64 64 0 0 1-64 64H64a64 64 0 0 1-64-64V64Zm390.95 233.55v53.22a40.64 40.64 0 0 1-40.56 40.6 16.87 16.87 0 0 1 0-33.71 6.88 6.88 0 0 0 6.86-6.89v-53.22A64.08 64.08 0 0 1 378.22 250a64.07 64.07 0 0 1-20.97-47.57V149.2a6.88 6.88 0 0 0-6.86-6.88 16.88 16.88 0 0 1 0-33.72 40.64 40.64 0 0 1 40.56 40.6v53.23a30.59 30.59 0 0 0 14.24 25.9A25.6 25.6 0 0 1 417 249.98a25.6 25.6 0 0 1-11.81 21.67 30.57 30.57 0 0 0-14.24 25.9Zm-264.87-95.13V149.2a40.64 40.64 0 0 1 40.57-40.6 16.87 16.87 0 0 1 0 33.72 6.87 6.87 0 0 0-6.86 6.88v53.22a64.1 64.1 0 0 1-20.96 47.57 64.1 64.1 0 0 1 20.96 47.56v53.21a6.88 6.88 0 0 0 6.86 6.89 16.87 16.87 0 0 1 0 33.72 40.64 40.64 0 0 1-40.57-40.6v-53.23a30.58 30.58 0 0 0-14.23-25.9 25.58 25.58 0 0 1-11.81-21.66 25.6 25.6 0 0 1 11.8-21.66 30.58 30.58 0 0 0 14.24-25.9Zm207.44 47.57a17.56 17.56 0 1 1-35.13 0 17.56 17.56 0 0 1 35.13 0Zm-114.88 0a17.56 17.56 0 1 1-35.13 0 17.56 17.56 0 0 1 35.13 0Zm39.87 17.56a17.56 17.56 0 1 0 0-35.13 17.56 17.56 0 0 0 0 35.13Z" fill="#0D6BC1"/>
</svg>
